# xmcd
#
# Track frame offsets:
#	150
#	13023
#	25422
#	35809
#	52601
#	67978
#	80620
#	91887
#	110407
#	138497
#	147957
#	158354
#	168449
#	188569
#	207598
#
# Disc length: 2916 seconds
#
# Revision: 1
# Processed by: cddbd v1.5.2PL0 Copyright (c) Steve Scherf et al.
# Submitted via: audiograbber 1.83.01
#
DISCID=c20b620f
DTITLE=Johnny Cash - I Walk The Line
DYEAR=2007
DGENRE=Country
TTITLE0=Wanted Man
TTITLE1=I Walk The Line
TTITLE2=You Win Again
TTITLE3=A Boy Named Sue
TTITLE4=Darlin' Companion
TTITLE5=Folsom Prison Blues
TTITLE6=There'll Be Peace In The Valley
TTITLE7=San Quentin
TTITLE8=Starkville City Jail
TTITLE9=Wreck Of The Old 97
TTITLE10=Daddy Sang Bass
TTITLE11=Get Rhythm
TTITLE12=Banks Of The Ohio
TTITLE13=Sunday Morning Coming Down
TTITLE14=Mean Eyed Cat
EXTD=Levné knihy, EAN 8594058697616
EXTT0=
EXTT1=
EXTT2=
EXTT3=
EXTT4=
EXTT5=
EXTT6=
EXTT7=
EXTT8=
EXTT9=
EXTT10=
EXTT11=
EXTT12=
EXTT13=
EXTT14=
PLAYORDER=
